<svg id="Layer_1" data-name="Layer 1" xmlns="http://www.w3.org/2000/svg" viewBox="0 0 877.55 319.75"><title>tahidulport</title><polygon points="96.12 6.79 96.12 35.53 62.75 35.53 62.75 144.6 34.02 144.6 34.02 35.53 0.71 35.53 0.71 6.79 96.12 6.79" style="fill:none;stroke:#fff;stroke-miterlimit:10;stroke-width:1.4209454980297989px"/><path d="M183.55,50.54v6.12a42.83,42.83,0,0,0-25-7.65c-28.93,0-50.74,22.45-50.74,52.22s21.81,52.28,50.74,52.28a42.84,42.84,0,0,0,25-7.66V152h28.74V50.54ZM160,124.77a23.52,23.52,0,1,1,23.54-23.54A23.54,23.54,0,0,1,160,124.77Z" transform="translate(-19.15 -7.37)" style="fill:none;stroke:#fff;stroke-miterlimit:10;stroke-width:1.4209454980297989px"/><path d="M319.94,95.94v56H291.2v-56c0-15.22-5.57-18.2-15.18-18.2-8.28,0-19.74,6.6-19.74,19V152H227.55V8.08h28.73V55.15A43.59,43.59,0,0,1,279.43,49C305.17,49,319.94,66.11,319.94,95.94Z" transform="translate(-19.15 -7.37)" style="fill:none;stroke:#fff;stroke-miterlimit:10;stroke-width:1.4209454980297989px"/><rect x="313.03" y="43.17" width="28.74" height="101.43" style="fill:none;stroke:#fff;stroke-miterlimit:10;stroke-width:1.4209454980297989px"/><path d="M365.47,27A18.92,18.92,0,1,1,346.55,8.08,18.94,18.94,0,0,1,365.47,27Z" transform="translate(-19.15 -7.37)" style="fill:none;stroke:#fff;stroke-miterlimit:10;stroke-width:1.4209454980297989px"/><path d="M445.86,8.08V56.66A43,43,0,0,0,420.78,49c-28.89,0-50.69,22.45-50.69,52.22s21.8,52.28,50.69,52.28a43,43,0,0,0,25.08-7.66V152h28.73V8.08ZM422.32,124.77a23.52,23.52,0,1,1,23.54-23.54A23.54,23.54,0,0,1,422.32,124.77Z" transform="translate(-19.15 -7.37)" style="fill:none;stroke:#fff;stroke-miterlimit:10;stroke-width:1.4209454980297989px"/><path d="M579.18,50.54V152H550.44v-4.58a43.55,43.55,0,0,1-23.14,6.12c-25.34,0-40.46-17-40.46-45.46V50.54h28.73v56c0,15.22,5.55,18.2,15.14,18.2,8.27,0,19.73-6.6,19.73-19V50.54Z" transform="translate(-19.15 -7.37)" style="fill:none;stroke:#fff;stroke-miterlimit:10;stroke-width:1.4209454980297989px"/><path d="M523.83,176.76,455,324.87h31.37l12.33-27.28h50.41l12.27,27.28h31.43Zm-12.06,92.1,12.06-26.68,12.11,26.68Z" transform="translate(-19.15 -7.37)" style="fill:none;stroke:#fff;stroke-miterlimit:10;stroke-width:1.4209454980297989px"/><rect x="575.28" y="0.71" width="28.74" height="316.79" style="fill:none;stroke:#fff;stroke-miterlimit:10;stroke-width:1.4209454980297989px"/><path d="M708.11,229.61a42.88,42.88,0,0,0-25.08-7.7c-28.93,0-50.74,22.45-50.74,52.22S654.1,326.41,683,326.41a42.94,42.94,0,0,0,25.08-7.73v6.19h28.73V223.38H708.11Zm-23.54,68.06a23.52,23.52,0,1,1,23.54-23.54A23.57,23.57,0,0,1,684.57,297.67Z" transform="translate(-19.15 -7.37)" style="fill:none;stroke:#fff;stroke-miterlimit:10;stroke-width:1.4209454980297989px"/><path d="M896,268.84v56H867.25v-56c0-18.2-8.22-18.2-12.17-18.2-8.08,0-16.67,6.64-16.67,18.94v55.29H809.68v-56c0-18.2-8.23-18.2-12.18-18.2-8,0-16.66,5.93-16.66,18.94v55.29H752.1V223.38h28.74v3.87c4.4-2.86,10.71-5.34,20.07-5.34,11.11,0,20.33,4,26.87,11.56,9-8.07,18.34-11.56,30.71-11.56C882,221.91,896,239.45,896,268.84Z" transform="translate(-19.15 -7.37)" style="fill:none;stroke:#fff;stroke-miterlimit:10;stroke-width:1.4209454980297989px"/></svg>